<svg width="296" height="390" viewBox="0 0 296 390" fill="none" xmlns="http://www.w3.org/2000/svg">
<path d="M55.08 188.19C44.64 188.19 34.65 186.93 25.11 184.41C15.57 181.71 7.2 178.92 0 176.04L5.4 123.93L28.08 125.82L30.24 155.79C32.58 156.33 35.73 157.14 39.69 158.22C43.83 159.3 48.42 159.84 53.46 159.84C61.92 159.84 69.3 158.13 75.6 154.71C82.08 151.11 85.32 145.44 85.32 137.7C85.32 132.84 84.06 128.88 81.54 125.82C79.02 122.58 75.24 119.61 70.2 116.91C65.34 114.03 59.04 110.88 51.3 107.46C42.12 103.14 33.75 98.73 26.19 94.23C18.81 89.55 12.96 83.88 8.64 77.22C4.32 70.38 2.16 61.65 2.16 51.03C2.16 40.59 4.95 31.59 10.53 24.03C16.29 16.47 23.94 10.62 33.48 6.48C43.2 2.34 53.82 0.269989 65.34 0.269989C74.7 0.269989 83.79 0.98999 92.61 2.42999C101.61 3.86998 109.62 5.57999 116.64 7.56L120.69 58.86H98.01L84.78 30.24C82.44 29.88 79.56 29.52 76.14 29.16C72.72 28.8 69.48 28.62 66.42 28.62C57.06 28.62 50.13 30.6 45.63 34.56C41.13 38.52 38.88 43.38 38.88 49.14C38.88 54 40.77 58.14 44.55 61.56C48.51 64.98 53.28 68.04 58.86 70.74C64.62 73.26 70.11 75.78 75.33 78.3C91.35 85.86 103.14 93.6 110.7 101.52C118.44 109.44 122.31 119.88 122.31 132.84C122.31 142.92 120.33 151.47 116.37 158.49C112.59 165.51 107.46 171.27 100.98 175.77C94.5 180.09 87.21 183.24 79.11 185.22C71.19 187.2 63.18 188.19 55.08 188.19Z" fill="#BAE8E8"/>
<path d="M216.84 389.19C199.92 389.19 185.52 385.14 173.64 377.04C161.94 368.94 153.03 357.87 146.91 343.83C140.97 329.61 138 313.32 138 294.96C138 276.42 140.97 260.13 146.91 246.09C153.03 232.05 161.94 221.07 173.64 213.15C185.52 205.05 199.92 201 216.84 201C233.94 201 248.25 205.05 259.77 213.15C271.47 221.07 280.29 232.05 286.23 246.09C292.35 260.13 295.41 276.42 295.41 294.96C295.41 313.32 292.35 329.61 286.23 343.83C280.29 357.87 271.47 368.94 259.77 377.04C248.25 385.14 233.94 389.19 216.84 389.19ZM216.84 360.84C225.3 360.84 232.59 357.96 238.71 352.2C245.01 346.44 249.87 338.61 253.29 328.71C256.71 318.81 258.42 307.74 258.42 295.5C258.42 283.08 256.71 271.92 253.29 262.02C249.87 251.94 245.01 244.02 238.71 238.26C232.59 232.32 225.3 229.35 216.84 229.35C208.38 229.35 201 232.32 194.7 238.26C188.4 244.02 183.54 251.94 180.12 262.02C176.7 271.92 174.99 283.08 174.99 295.5C174.99 307.74 176.7 318.81 180.12 328.71C183.54 338.61 188.4 346.44 194.7 352.2C201 357.96 208.38 360.84 216.84 360.84Z" fill="#BAE8E8"/>
<path d="M42.39 388.65C33.93 388.65 25.74 386.76 17.82 382.98C10.08 379.2 4.14 375.42 0 371.64L18.9 344.37C24.12 348.51 28.62 351.84 32.4 354.36C36.18 356.7 39.24 357.87 41.58 357.87C44.64 357.87 46.17 355.53 46.17 350.85V229.35L24.57 226.11L28.62 201H99.9V225.57L81.54 227.46V340.32C81.54 350.76 80.28 359.22 77.76 365.7C75.24 372 72 376.86 68.04 380.28C64.08 383.52 59.85 385.77 55.35 387.03C50.85 388.11 46.53 388.65 42.39 388.65Z" fill="#BAE8E8"/>
<path d="M216.84 188.19C199.92 188.19 185.52 184.14 173.64 176.04C161.94 167.94 153.03 156.87 146.91 142.83C140.97 128.61 138 112.32 138 93.96C138 75.42 140.97 59.13 146.91 45.09C153.03 31.05 161.94 20.07 173.64 12.15C185.52 4.05001 199.92 0 216.84 0C233.94 0 248.25 4.05001 259.77 12.15C271.47 20.07 280.29 31.05 286.23 45.09C292.35 59.13 295.41 75.42 295.41 93.96C295.41 112.32 292.35 128.61 286.23 142.83C280.29 156.87 271.47 167.94 259.77 176.04C248.25 184.14 233.94 188.19 216.84 188.19ZM216.84 159.84C225.3 159.84 232.59 156.96 238.71 151.2C245.01 145.44 249.87 137.61 253.29 127.71C256.71 117.81 258.42 106.74 258.42 94.5C258.42 82.08 256.71 70.92 253.29 61.02C249.87 50.94 245.01 43.02 238.71 37.26C232.59 31.32 225.3 28.35 216.84 28.35C208.38 28.35 201 31.32 194.7 37.26C188.4 43.02 183.54 50.94 180.12 61.02C176.7 70.92 174.99 82.08 174.99 94.5C174.99 106.74 176.7 117.81 180.12 127.71C183.54 137.61 188.4 145.44 194.7 151.2C201 156.96 208.38 159.84 216.84 159.84Z" fill="#BAE8E8"/>
</svg>
